<mxfile host="app.diagrams.net" modified="2023-10-14T08:14:31.797Z" agent="Mozilla/5.0 (Windows NT 10.0; Win64; x64) AppleWebKit/537.36 (KHTML, like Gecko) Chrome/116.0.0.0 Safari/537.36 OPR/102.0.0.0" etag="DO0IezF0Cg5Q1_Gp-FWp" version="22.0.4" type="google">
  <diagram name="Страница — 1" id="ET8gmwtORl87udngQYXo">
    <mxGraphModel dx="1639" dy="901" grid="1" gridSize="10" guides="1" tooltips="1" connect="1" arrows="1" fold="1" page="1" pageScale="1" pageWidth="827" pageHeight="1169" math="0" shadow="0">
      <root>
        <mxCell id="0" />
        <mxCell id="1" parent="0" />
        <mxCell id="uqzCaJT3dA76X2Smn2SO-2" value="Начало" style="rounded=1;whiteSpace=wrap;html=1;arcSize=43;fontFamily=Helvetica;" vertex="1" parent="1">
          <mxGeometry x="340" width="120" height="60" as="geometry" />
        </mxCell>
        <mxCell id="uqzCaJT3dA76X2Smn2SO-3" value="Ввод N" style="shape=parallelogram;perimeter=parallelogramPerimeter;whiteSpace=wrap;html=1;fixedSize=1;" vertex="1" parent="1">
          <mxGeometry x="340" y="110" width="120" height="60" as="geometry" />
        </mxCell>
        <mxCell id="uqzCaJT3dA76X2Smn2SO-4" value="" style="endArrow=none;html=1;rounded=0;entryX=0.5;entryY=1;entryDx=0;entryDy=0;" edge="1" parent="1" target="uqzCaJT3dA76X2Smn2SO-2">
          <mxGeometry width="50" height="50" relative="1" as="geometry">
            <mxPoint x="400" y="110" as="sourcePoint" />
            <mxPoint x="440" y="270" as="targetPoint" />
          </mxGeometry>
        </mxCell>
        <mxCell id="uqzCaJT3dA76X2Smn2SO-5" value="Является ли n числом?" style="html=1;whiteSpace=wrap;aspect=fixed;shape=isoRectangle;" vertex="1" parent="1">
          <mxGeometry x="326.25" y="200" width="147.5" height="88.5" as="geometry" />
        </mxCell>
        <mxCell id="uqzCaJT3dA76X2Smn2SO-6" value="" style="endArrow=none;html=1;rounded=0;entryX=0.5;entryY=1;entryDx=0;entryDy=0;exitX=0.5;exitY=0.022;exitDx=0;exitDy=0;exitPerimeter=0;" edge="1" parent="1" source="uqzCaJT3dA76X2Smn2SO-5" target="uqzCaJT3dA76X2Smn2SO-3">
          <mxGeometry width="50" height="50" relative="1" as="geometry">
            <mxPoint x="400" y="200" as="sourcePoint" />
            <mxPoint x="450" y="150" as="targetPoint" />
          </mxGeometry>
        </mxCell>
        <mxCell id="uqzCaJT3dA76X2Smn2SO-7" value="Сообщение об ошибке" style="shape=parallelogram;perimeter=parallelogramPerimeter;whiteSpace=wrap;html=1;fixedSize=1;" vertex="1" parent="1">
          <mxGeometry x="530" y="214.25" width="120" height="60" as="geometry" />
        </mxCell>
        <mxCell id="uqzCaJT3dA76X2Smn2SO-8" value="нет" style="endArrow=classic;html=1;rounded=0;entryX=0;entryY=0.5;entryDx=0;entryDy=0;exitX=0.995;exitY=0.5;exitDx=0;exitDy=0;exitPerimeter=0;" edge="1" parent="1" source="uqzCaJT3dA76X2Smn2SO-5" target="uqzCaJT3dA76X2Smn2SO-7">
          <mxGeometry x="-0.1943" y="14" width="50" height="50" relative="1" as="geometry">
            <mxPoint x="470" y="274.25" as="sourcePoint" />
            <mxPoint x="520" y="224.25" as="targetPoint" />
            <mxPoint as="offset" />
          </mxGeometry>
        </mxCell>
        <mxCell id="uqzCaJT3dA76X2Smn2SO-9" value="" style="endArrow=none;html=1;rounded=0;exitX=0.582;exitY=0.005;exitDx=0;exitDy=0;exitPerimeter=0;" edge="1" parent="1" source="uqzCaJT3dA76X2Smn2SO-7">
          <mxGeometry width="50" height="50" relative="1" as="geometry">
            <mxPoint x="600" y="210" as="sourcePoint" />
            <mxPoint x="600" y="80" as="targetPoint" />
          </mxGeometry>
        </mxCell>
        <mxCell id="uqzCaJT3dA76X2Smn2SO-10" value="" style="endArrow=classic;html=1;rounded=0;" edge="1" parent="1">
          <mxGeometry width="50" height="50" relative="1" as="geometry">
            <mxPoint x="600" y="80" as="sourcePoint" />
            <mxPoint x="400" y="80" as="targetPoint" />
          </mxGeometry>
        </mxCell>
        <mxCell id="uqzCaJT3dA76X2Smn2SO-11" value="да" style="endArrow=classic;html=1;rounded=0;exitX=0.499;exitY=0.982;exitDx=0;exitDy=0;exitPerimeter=0;entryX=0.5;entryY=0;entryDx=0;entryDy=0;" edge="1" parent="1" source="uqzCaJT3dA76X2Smn2SO-5" target="uqzCaJT3dA76X2Smn2SO-12">
          <mxGeometry x="-0.8856" y="-20" width="50" height="50" relative="1" as="geometry">
            <mxPoint x="460" y="440" as="sourcePoint" />
            <mxPoint x="400" y="320" as="targetPoint" />
            <mxPoint as="offset" />
          </mxGeometry>
        </mxCell>
        <mxCell id="uqzCaJT3dA76X2Smn2SO-12" value="Ввод M" style="shape=parallelogram;perimeter=parallelogramPerimeter;whiteSpace=wrap;html=1;fixedSize=1;" vertex="1" parent="1">
          <mxGeometry x="340" y="340" width="120" height="60" as="geometry" />
        </mxCell>
        <mxCell id="uqzCaJT3dA76X2Smn2SO-13" value="" style="endArrow=none;html=1;rounded=0;entryX=0.5;entryY=1;entryDx=0;entryDy=0;exitX=0.5;exitY=0.022;exitDx=0;exitDy=0;exitPerimeter=0;" edge="1" parent="1" target="uqzCaJT3dA76X2Smn2SO-12">
          <mxGeometry width="50" height="50" relative="1" as="geometry">
            <mxPoint x="400" y="432" as="sourcePoint" />
            <mxPoint x="450" y="380" as="targetPoint" />
          </mxGeometry>
        </mxCell>
        <mxCell id="uqzCaJT3dA76X2Smn2SO-14" value="Сообщение об ошибке" style="shape=parallelogram;perimeter=parallelogramPerimeter;whiteSpace=wrap;html=1;fixedSize=1;" vertex="1" parent="1">
          <mxGeometry x="530" y="444.25" width="120" height="60" as="geometry" />
        </mxCell>
        <mxCell id="uqzCaJT3dA76X2Smn2SO-15" value="нет" style="endArrow=classic;html=1;rounded=0;entryX=0;entryY=0.5;entryDx=0;entryDy=0;exitX=0.995;exitY=0.5;exitDx=0;exitDy=0;exitPerimeter=0;" edge="1" parent="1" target="uqzCaJT3dA76X2Smn2SO-14">
          <mxGeometry x="-0.1943" y="14" width="50" height="50" relative="1" as="geometry">
            <mxPoint x="473" y="474" as="sourcePoint" />
            <mxPoint x="520" y="454.25" as="targetPoint" />
            <mxPoint as="offset" />
          </mxGeometry>
        </mxCell>
        <mxCell id="uqzCaJT3dA76X2Smn2SO-16" value="" style="endArrow=none;html=1;rounded=0;exitX=0.582;exitY=0.005;exitDx=0;exitDy=0;exitPerimeter=0;" edge="1" parent="1" source="uqzCaJT3dA76X2Smn2SO-14">
          <mxGeometry width="50" height="50" relative="1" as="geometry">
            <mxPoint x="600" y="440" as="sourcePoint" />
            <mxPoint x="600" y="310" as="targetPoint" />
          </mxGeometry>
        </mxCell>
        <mxCell id="uqzCaJT3dA76X2Smn2SO-17" value="" style="endArrow=classic;html=1;rounded=0;" edge="1" parent="1">
          <mxGeometry width="50" height="50" relative="1" as="geometry">
            <mxPoint x="600" y="310" as="sourcePoint" />
            <mxPoint x="400" y="310" as="targetPoint" />
          </mxGeometry>
        </mxCell>
        <mxCell id="uqzCaJT3dA76X2Smn2SO-18" value="да" style="endArrow=classic;html=1;rounded=0;exitX=0.499;exitY=0.982;exitDx=0;exitDy=0;exitPerimeter=0;" edge="1" parent="1">
          <mxGeometry x="-0.2141" y="-20" width="50" height="50" relative="1" as="geometry">
            <mxPoint x="400" y="517" as="sourcePoint" />
            <mxPoint x="400" y="550" as="targetPoint" />
            <mxPoint as="offset" />
          </mxGeometry>
        </mxCell>
        <mxCell id="uqzCaJT3dA76X2Smn2SO-19" value="Является ли M&lt;br&gt;&amp;nbsp;числом?" style="html=1;whiteSpace=wrap;aspect=fixed;shape=isoRectangle;" vertex="1" parent="1">
          <mxGeometry x="326.25" y="430" width="147.5" height="88.5" as="geometry" />
        </mxCell>
        <mxCell id="uqzCaJT3dA76X2Smn2SO-21" value="Вывод:&lt;br&gt;1) ++n * ++m&lt;br&gt;2) m++ &amp;lt; n&lt;br&gt;3) n++ &amp;gt; m" style="shape=parallelogram;perimeter=parallelogramPerimeter;whiteSpace=wrap;html=1;fixedSize=1;" vertex="1" parent="1">
          <mxGeometry x="340" y="550" width="120" height="60" as="geometry" />
        </mxCell>
        <mxCell id="uqzCaJT3dA76X2Smn2SO-22" value="Ввод X" style="shape=parallelogram;perimeter=parallelogramPerimeter;whiteSpace=wrap;html=1;fixedSize=1;" vertex="1" parent="1">
          <mxGeometry x="340" y="660" width="120" height="60" as="geometry" />
        </mxCell>
        <mxCell id="uqzCaJT3dA76X2Smn2SO-23" value="Является ли X&amp;nbsp;числом?" style="html=1;whiteSpace=wrap;aspect=fixed;shape=isoRectangle;" vertex="1" parent="1">
          <mxGeometry x="326.25" y="750" width="147.5" height="88.5" as="geometry" />
        </mxCell>
        <mxCell id="uqzCaJT3dA76X2Smn2SO-24" value="" style="endArrow=none;html=1;rounded=0;entryX=0.5;entryY=1;entryDx=0;entryDy=0;exitX=0.5;exitY=0.022;exitDx=0;exitDy=0;exitPerimeter=0;" edge="1" parent="1" source="uqzCaJT3dA76X2Smn2SO-23" target="uqzCaJT3dA76X2Smn2SO-22">
          <mxGeometry width="50" height="50" relative="1" as="geometry">
            <mxPoint x="400" y="750" as="sourcePoint" />
            <mxPoint x="450" y="700" as="targetPoint" />
          </mxGeometry>
        </mxCell>
        <mxCell id="uqzCaJT3dA76X2Smn2SO-25" value="Сообщение об ошибке" style="shape=parallelogram;perimeter=parallelogramPerimeter;whiteSpace=wrap;html=1;fixedSize=1;" vertex="1" parent="1">
          <mxGeometry x="530" y="764.25" width="120" height="60" as="geometry" />
        </mxCell>
        <mxCell id="uqzCaJT3dA76X2Smn2SO-26" value="нет" style="endArrow=classic;html=1;rounded=0;entryX=0;entryY=0.5;entryDx=0;entryDy=0;exitX=0.995;exitY=0.5;exitDx=0;exitDy=0;exitPerimeter=0;" edge="1" parent="1" source="uqzCaJT3dA76X2Smn2SO-23" target="uqzCaJT3dA76X2Smn2SO-25">
          <mxGeometry x="-0.1943" y="14" width="50" height="50" relative="1" as="geometry">
            <mxPoint x="470" y="824.25" as="sourcePoint" />
            <mxPoint x="520" y="774.25" as="targetPoint" />
            <mxPoint as="offset" />
          </mxGeometry>
        </mxCell>
        <mxCell id="uqzCaJT3dA76X2Smn2SO-27" value="" style="endArrow=none;html=1;rounded=0;exitX=0.582;exitY=0.005;exitDx=0;exitDy=0;exitPerimeter=0;" edge="1" parent="1" source="uqzCaJT3dA76X2Smn2SO-25">
          <mxGeometry width="50" height="50" relative="1" as="geometry">
            <mxPoint x="600" y="760" as="sourcePoint" />
            <mxPoint x="600" y="630" as="targetPoint" />
          </mxGeometry>
        </mxCell>
        <mxCell id="uqzCaJT3dA76X2Smn2SO-28" value="" style="endArrow=classic;html=1;rounded=0;" edge="1" parent="1">
          <mxGeometry width="50" height="50" relative="1" as="geometry">
            <mxPoint x="600" y="630" as="sourcePoint" />
            <mxPoint x="400" y="630" as="targetPoint" />
          </mxGeometry>
        </mxCell>
        <mxCell id="uqzCaJT3dA76X2Smn2SO-29" value="" style="endArrow=none;html=1;rounded=0;entryX=0.5;entryY=1;entryDx=0;entryDy=0;exitX=0.5;exitY=0;exitDx=0;exitDy=0;" edge="1" parent="1" source="uqzCaJT3dA76X2Smn2SO-22" target="uqzCaJT3dA76X2Smn2SO-21">
          <mxGeometry width="50" height="50" relative="1" as="geometry">
            <mxPoint x="390" y="720" as="sourcePoint" />
            <mxPoint x="440" y="670" as="targetPoint" />
          </mxGeometry>
        </mxCell>
        <mxCell id="uqzCaJT3dA76X2Smn2SO-30" value="да" style="endArrow=classic;html=1;rounded=0;exitX=0.5;exitY=0.979;exitDx=0;exitDy=0;exitPerimeter=0;" edge="1" parent="1" source="uqzCaJT3dA76X2Smn2SO-23">
          <mxGeometry x="-0.1991" y="-10" width="50" height="50" relative="1" as="geometry">
            <mxPoint x="400" y="840" as="sourcePoint" />
            <mxPoint x="400" y="870" as="targetPoint" />
            <mxPoint as="offset" />
          </mxGeometry>
        </mxCell>
        <mxCell id="uqzCaJT3dA76X2Smn2SO-48" value="да" style="edgeStyle=orthogonalEdgeStyle;rounded=0;orthogonalLoop=1;jettySize=auto;html=1;exitX=0.5;exitY=1;exitDx=0;exitDy=0;entryX=0.5;entryY=0;entryDx=0;entryDy=0;" edge="1" parent="1" source="uqzCaJT3dA76X2Smn2SO-32" target="uqzCaJT3dA76X2Smn2SO-45">
          <mxGeometry x="-0.5" y="-20" relative="1" as="geometry">
            <mxPoint as="offset" />
          </mxGeometry>
        </mxCell>
        <mxCell id="uqzCaJT3dA76X2Smn2SO-32" value="(X^3-X) = 0?" style="rhombus;whiteSpace=wrap;html=1;" vertex="1" parent="1">
          <mxGeometry x="330" y="870" width="140" height="80" as="geometry" />
        </mxCell>
        <mxCell id="uqzCaJT3dA76X2Smn2SO-35" value="нет" style="endArrow=classic;html=1;rounded=0;" edge="1" parent="1">
          <mxGeometry y="10" width="50" height="50" relative="1" as="geometry">
            <mxPoint x="470" y="910" as="sourcePoint" />
            <mxPoint x="530" y="910" as="targetPoint" />
            <mxPoint as="offset" />
          </mxGeometry>
        </mxCell>
        <mxCell id="uqzCaJT3dA76X2Smn2SO-43" value="Сообщение об ошибке" style="shape=parallelogram;perimeter=parallelogramPerimeter;whiteSpace=wrap;html=1;fixedSize=1;" vertex="1" parent="1">
          <mxGeometry x="520" y="880" width="120" height="60" as="geometry" />
        </mxCell>
        <mxCell id="uqzCaJT3dA76X2Smn2SO-45" value="Вывод X+1/(X^3-X)-2" style="shape=parallelogram;perimeter=parallelogramPerimeter;whiteSpace=wrap;html=1;fixedSize=1;" vertex="1" parent="1">
          <mxGeometry x="330" y="990" width="140" height="60" as="geometry" />
        </mxCell>
      </root>
    </mxGraphModel>
  </diagram>
</mxfile>
